<?xml version="1.0" encoding="utf-8"?>
<!-- Generator: Adobe Illustrator 16.0.0, SVG Export Plug-In . SVG Version: 6.00 Build 0)  -->
<!DOCTYPE svg PUBLIC "-//W3C//DTD SVG 1.1//EN" "http://www.w3.org/Graphics/SVG/1.1/DTD/svg11.dtd">
<svg version="1.1" id="Layer_1" xmlns="http://www.w3.org/2000/svg" xmlns:xlink="http://www.w3.org/1999/xlink" x="0px" y="0px"
	 width="512px" height="256px" viewBox="0 0 512 256" enable-background="new 0 0 512 256" xml:space="preserve">
<g>
	<circle fill="#20A79F" cx="83.776" cy="109.874" r="16"/>
	<path fill="#095B56" d="M71.922,117.626l7.704,7.703c1.323,0.355,2.715,0.545,4.15,0.545c8.837,0,16-7.163,16-16
		c0-0.682-0.043-1.354-0.125-2.014l-8.01-8.01l-12.672,2.391l-1.488-1.69h-0.65l0.221,9.222L71.922,117.626z"/>
	<path fill="#E6E7E8" d="M77.759,100.63v19.199c0,0.59,0.478,1.066,1.067,1.066h12.089c0.588,0,1.066-0.477,1.066-1.066V100.63
		c0-0.59-0.479-1.066-1.066-1.066H78.826C78.236,99.563,77.759,100.04,77.759,100.63z M82.334,118.526h7.964v0.592h-7.964V118.526z
		 M90.298,110.017v2.133h-2.133v-2.133H90.298z M88.165,109.424v-2.134h2.133v2.134H88.165z M90.298,112.86v2.134h-2.133v-2.134
		H90.298z M90.298,115.563v2.133h-2.133v-2.133H90.298z M82.192,115.563h5.167v2.133h-5.167V115.563z M87.359,110.017v2.133h-2.134
		v-2.133H87.359z M85.226,109.424v-2.134h2.134v2.134H85.226z M87.359,112.86v2.134h-2.134v-2.134H87.359z M82.192,112.86h2.133
		v2.134h-2.133V112.86z M82.192,110.017h2.133v2.133h-2.133V110.017z M82.192,107.29h2.133v2.134h-2.133V107.29z M79.253,115.563
		h2.133v3.555h-2.133V115.563z M79.253,112.86h2.133v2.134h-2.133V112.86z M79.253,110.017h2.133v2.133h-2.133V110.017z
		 M79.253,107.29h2.133v2.134h-2.133V107.29z M78.897,103.521c0-0.589,0.478-1.066,1.066-1.066h9.813
		c0.59,0,1.067,0.478,1.067,1.066v0.759c0,0.589-0.478,1.066-1.067,1.066h-9.813c-0.589,0-1.066-0.478-1.066-1.066V103.521z"/>
	<g>
		<polygon fill="#D1D3D4" points="71.922,117.625 72.368,117.883 76.968,109.915 77.051,109.772 77.051,100.551 77.481,100.551 
			76.781,99.851 76.104,100.551 76.535,100.551 76.535,109.634 		"/>
		<path fill="#D1D3D4" d="M68.406,109.915"/>
		<rect x="76.087" y="112.552" fill="#D1D3D4" width="0.745" height="5.331"/>
		<rect x="74.94" y="113.929" fill="#D1D3D4" width="0.773" height="3.954"/>
		<rect x="73.794" y="115.647" fill="#D1D3D4" width="0.745" height="2.235"/>
	</g>
</g>
<g>
	<circle fill="#20A79F" cx="216.528" cy="155.741" r="64"/>
	<path fill="#095B56" d="M169.11,186.748l30.815,30.815c5.294,1.422,10.859,2.179,16.604,2.179
		c35.348,0,63.999-28.651,63.999-63.999c0-2.73-0.169-5.416-0.502-8.056l-32.037-32.037l-50.688,9.56l-5.955-6.762h-2.597
		l0.878,36.887L169.11,186.748z"/>
	<path fill="#E6E7E8" d="M192.459,118.765v76.799c0,2.357,1.909,4.267,4.267,4.267h48.356c2.354,0,4.266-1.909,4.266-4.267v-76.799
		c0-2.355-1.911-4.268-4.266-4.268h-48.356C194.368,114.497,192.459,116.409,192.459,118.765z M210.758,190.351h31.857v2.369
		h-31.857V190.351z M242.615,156.312v8.532h-8.533v-8.532H242.615z M234.082,153.94v-8.532h8.533v8.532H234.082z M242.615,167.688
		v8.533h-8.533v-8.533H242.615z M242.615,178.497v8.533h-8.533v-8.533H242.615z M210.189,178.497h20.67v8.533h-20.67V178.497z
		 M230.859,156.312v8.532h-8.533v-8.532H230.859z M222.326,153.94v-8.532h8.533v8.532H222.326z M230.859,167.688v8.533h-8.533
		v-8.533H230.859z M210.189,167.688h8.533v8.533h-8.533V167.688z M210.189,156.312h8.533v8.532h-8.533V156.312z M210.189,145.408
		h8.533v8.532h-8.533V145.408z M198.433,178.497h8.533v14.223h-8.533V178.497z M198.433,167.688h8.533v8.533h-8.533V167.688z
		 M198.433,156.312h8.533v8.532h-8.533V156.312z M198.433,145.408h8.533v8.532h-8.533V145.408z M197.01,130.333
		c0-2.355,1.911-4.268,4.267-4.268h39.254c2.354,0,4.266,1.912,4.266,4.268v3.034c0,2.355-1.912,4.267-4.266,4.267h-39.254
		c-2.355,0-4.267-1.911-4.267-4.267V130.333z"/>
	<g>
		<polygon fill="#D1D3D4" points="169.11,186.745 170.896,187.776 189.296,155.908 189.626,155.337 189.626,118.45 191.346,118.45 
			188.546,115.651 185.843,118.45 187.562,118.45 187.562,154.783 		"/>
		<path fill="#D1D3D4" d="M155.045,155.908"/>
		<rect x="185.77" y="166.456" fill="#D1D3D4" width="2.981" height="21.32"/>
		<rect x="181.185" y="171.958" fill="#D1D3D4" width="3.096" height="15.818"/>
		<rect x="176.598" y="178.837" fill="#D1D3D4" width="2.981" height="8.939"/>
	</g>
</g>
<g>
	<circle fill="#20A79F" cx="403.629" cy="155.741" r="96"/>
	<path fill="#095B56" d="M332.503,202.251l46.222,46.224c7.941,2.134,16.289,3.269,24.905,3.269c53.021,0,95.999-42.979,95.999-96
		c0-4.094-0.254-8.124-0.754-12.082L450.82,95.605l-76.031,14.339l-8.933-10.143h-3.896l1.317,55.331L332.503,202.251z"/>
	<path fill="#E6E7E8" d="M367.527,100.276v115.199c0,3.535,2.862,6.398,6.4,6.398h72.532c3.532,0,6.399-2.863,6.399-6.398V100.276
		c0-3.533-2.867-6.401-6.399-6.401h-72.532C370.39,93.875,367.527,96.743,367.527,100.276z M394.975,207.654h47.786v3.555h-47.786
		V207.654z M442.761,156.596v12.8h-12.8v-12.8H442.761z M429.961,153.041v-12.8h12.8v12.8H429.961z M442.761,173.662v12.8h-12.8
		v-12.8H442.761z M442.761,189.875v12.8h-12.8v-12.8H442.761z M394.121,189.875h31.006v12.8h-31.006V189.875z M425.127,156.596v12.8
		h-12.801v-12.8H425.127z M412.326,153.041v-12.8h12.801v12.8H412.326z M425.127,173.662v12.8h-12.801v-12.8H425.127z
		 M394.121,173.662h12.8v12.8h-12.8V173.662z M394.121,156.596h12.8v12.8h-12.8V156.596z M394.121,140.241h12.8v12.8h-12.8V140.241z
		 M376.486,189.875h12.8v21.334h-12.8V189.875z M376.486,173.662h12.8v12.8h-12.8V173.662z M376.486,156.596h12.8v12.8h-12.8
		V156.596z M376.486,140.241h12.8v12.8h-12.8V140.241z M374.354,117.628c0-3.532,2.867-6.4,6.399-6.4h58.88
		c3.533,0,6.4,2.868,6.4,6.4v4.553c0,3.533-2.867,6.4-6.4,6.4h-58.88c-3.532,0-6.399-2.867-6.399-6.4V117.628z"/>
	<g>
		<polygon fill="#D1D3D4" points="332.504,202.247 335.182,203.794 362.781,155.991 363.277,155.134 363.277,99.805 365.855,99.805 
			361.658,95.606 357.603,99.805 360.181,99.805 360.181,154.304 		"/>
		<path fill="#D1D3D4" d="M311.406,155.991"/>
		<rect x="357.492" y="171.813" fill="#D1D3D4" width="4.473" height="31.981"/>
		<rect x="350.615" y="180.067" fill="#D1D3D4" width="4.643" height="23.727"/>
		<rect x="343.734" y="190.384" fill="#D1D3D4" width="4.473" height="13.41"/>
	</g>
</g>
<text transform="matrix(1 0 0 1 67.7764 80.5498)" font-family="'MyriadPro-Regular'" font-size="12">32 x 32</text>
<text transform="matrix(1 0 0 1 194.8594 80.5498)" font-family="'MyriadPro-Regular'" font-size="12">128 x 128</text>
<text transform="matrix(1 0 0 1 378.8594 51.5498)" font-family="'MyriadPro-Regular'" font-size="12">192 x 192</text>
<g>
	<path fill="#095B56" d="M202.324,9.323h2.088v14.425h6.913V25.5h-9V9.323z"/>
	<path fill="#095B56" d="M223.757,19.596c0,4.296-2.977,6.168-5.785,6.168c-3.144,0-5.568-2.304-5.568-5.977
		c0-3.888,2.544-6.168,5.76-6.168C221.5,13.619,223.757,16.043,223.757,19.596z M214.54,19.715c0,2.544,1.464,4.464,3.528,4.464
		c2.016,0,3.528-1.896,3.528-4.512c0-1.968-0.984-4.464-3.48-4.464S214.54,17.507,214.54,19.715z"/>
	<path fill="#095B56" d="M236.429,13.883c-0.048,0.84-0.096,1.776-0.096,3.192v6.745c0,2.664-0.528,4.296-1.656,5.305
		c-1.128,1.056-2.76,1.392-4.224,1.392c-1.392,0-2.928-0.336-3.865-0.96l0.528-1.608c0.768,0.48,1.968,0.912,3.408,0.912
		c2.16,0,3.744-1.128,3.744-4.057v-1.296h-0.048c-0.648,1.08-1.896,1.944-3.696,1.944c-2.88,0-4.944-2.448-4.944-5.665
		c0-3.937,2.568-6.168,5.232-6.168c2.016,0,3.12,1.056,3.625,2.016h0.048l0.096-1.752H236.429z M234.245,18.467
		c0-0.36-0.024-0.672-0.12-0.96c-0.384-1.224-1.417-2.232-2.953-2.232c-2.016,0-3.456,1.705-3.456,4.393
		c0,2.28,1.152,4.176,3.432,4.176c1.296,0,2.472-0.816,2.928-2.16c0.12-0.36,0.168-0.768,0.168-1.128V18.467z"/>
	<path fill="#095B56" d="M250.349,19.596c0,4.296-2.977,6.168-5.785,6.168c-3.144,0-5.568-2.304-5.568-5.977
		c0-3.888,2.544-6.168,5.76-6.168C248.092,13.619,250.349,16.043,250.349,19.596z M241.132,19.715c0,2.544,1.464,4.464,3.528,4.464
		c2.016,0,3.528-1.896,3.528-4.512c0-1.968-0.984-4.464-3.48-4.464S241.132,17.507,241.132,19.715z"/>
	<path fill="#095B56" d="M266.717,18.396c-0.12-2.256-0.264-4.969-0.24-6.985h-0.072c-0.552,1.896-1.224,3.913-2.04,6.145
		l-2.856,7.849h-1.584l-2.616-7.705c-0.768-2.28-1.416-4.368-1.872-6.289h-0.048c-0.048,2.016-0.168,4.729-0.312,7.153l-0.432,6.937
		h-1.992l1.128-16.177h2.665l2.76,7.825c0.672,1.992,1.224,3.768,1.632,5.448h0.072c0.408-1.632,0.984-3.408,1.704-5.448l2.88-7.825
		h2.664l1.009,16.177h-2.04L266.717,18.396z"/>
	<path fill="#095B56" d="M278.884,25.5l-0.168-1.464h-0.071c-0.648,0.912-1.896,1.729-3.553,1.729c-2.353,0-3.553-1.656-3.553-3.336
		c0-2.808,2.496-4.344,6.984-4.32v-0.24c0-0.96-0.264-2.688-2.64-2.688c-1.08,0-2.208,0.336-3.024,0.864l-0.48-1.392
		c0.961-0.624,2.353-1.032,3.816-1.032c3.553,0,4.417,2.424,4.417,4.752v4.344c0,1.008,0.048,1.992,0.192,2.784H278.884z
		 M278.572,19.571c-2.305-0.048-4.921,0.36-4.921,2.616c0,1.368,0.912,2.017,1.992,2.017c1.513,0,2.472-0.96,2.808-1.944
		c0.072-0.216,0.121-0.456,0.121-0.672V19.571z"/>
	<path fill="#095B56" d="M284.019,17.507c0-1.368-0.024-2.544-0.096-3.625h1.849l0.071,2.28h0.097c0.527-1.56,1.8-2.544,3.216-2.544
		c0.239,0,0.408,0.024,0.601,0.072v1.992c-0.217-0.048-0.433-0.072-0.721-0.072c-1.488,0-2.544,1.128-2.832,2.712
		c-0.049,0.288-0.096,0.624-0.096,0.984V25.5h-2.089V17.507z"/>
	<path fill="#095B56" d="M294.051,19.211h0.049c0.287-0.408,0.695-0.912,1.031-1.32l3.408-4.008h2.545l-4.488,4.776l5.112,6.841
		h-2.568l-4.009-5.568l-1.08,1.2V25.5h-2.088V8.458h2.088V19.211z"/>
</g>
</svg>
