<?xml version="1.0" encoding="utf-8"?>
<!-- Generator: Adobe Illustrator 16.0.0, SVG Export Plug-In . SVG Version: 6.00 Build 0)  -->
<!DOCTYPE svg PUBLIC "-//W3C//DTD SVG 1.1//EN" "http://www.w3.org/Graphics/SVG/1.1/DTD/svg11.dtd">
<svg version="1.1" id="Layer_1" xmlns="http://www.w3.org/2000/svg" xmlns:xlink="http://www.w3.org/1999/xlink" x="0px" y="0px"
	 width="512px" height="256px" viewBox="0 0 512 256" enable-background="new 0 0 512 256" xml:space="preserve">
<g>
	<g>
		<ellipse fill="#20A79F" cx="62.719" cy="95.541" rx="16" ry="16.275"/>
		<path fill="#095B56" d="M50.864,103.427l7.704,7.836c1.323,0.361,2.714,0.554,4.15,0.554c8.837,0,16-7.286,16-16.275
			c0-0.694-0.042-1.378-0.126-2.048l-8.009-8.148l-12.672,2.432l-1.489-1.72h-0.649l0.22,9.381L50.864,103.427z"/>
		<path fill="#E6E7E8" d="M56.702,86.138v19.53c0,0.599,0.477,1.085,1.066,1.085h12.089c0.589,0,1.066-0.486,1.066-1.085v-19.53
			c0-0.6-0.478-1.086-1.066-1.086H57.769C57.179,85.052,56.702,85.538,56.702,86.138z M61.276,104.342h7.964v0.604h-7.964V104.342z
			 M69.24,95.686v2.169h-2.133v-2.169H69.24z M67.107,95.083v-2.17h2.133v2.17H67.107z M69.24,98.579v2.17h-2.133v-2.17H69.24z
			 M69.24,101.327v2.171h-2.133v-2.171H69.24z M61.134,101.327h5.168v2.171h-5.168V101.327z M66.302,95.686v2.169h-2.134v-2.169
			H66.302z M64.168,95.083v-2.17h2.134v2.17H64.168z M66.302,98.579v2.17h-2.134v-2.17H66.302z M61.134,98.579h2.134v2.17h-2.134
			V98.579z M61.134,95.686h2.134v2.169h-2.134V95.686z M61.134,92.913h2.134v2.17h-2.134V92.913z M58.194,101.327h2.134v3.618
			h-2.134V101.327z M58.194,98.579h2.134v2.17h-2.134V98.579z M58.194,95.686h2.134v2.169h-2.134V95.686z M58.194,92.913h2.134v2.17
			h-2.134V92.913z M57.839,89.079c0-0.6,0.479-1.086,1.067-1.086h9.813c0.589,0,1.066,0.486,1.066,1.086v0.771
			c0,0.599-0.478,1.086-1.066,1.086h-9.813c-0.589,0-1.067-0.487-1.067-1.086V89.079z"/>
		<g>
			<polygon fill="#D1D3D4" points="50.864,103.426 51.31,103.688 55.911,95.583 55.993,95.438 55.993,86.057 56.423,86.057 
				55.724,85.345 55.048,86.057 55.478,86.057 55.478,95.297 			"/>
			<path fill="#D1D3D4" d="M47.349,95.583"/>
			<rect x="55.029" y="98.266" fill="#D1D3D4" width="0.745" height="5.422"/>
			<rect x="53.883" y="99.665" fill="#D1D3D4" width="0.774" height="4.022"/>
			<rect x="52.735" y="101.414" fill="#D1D3D4" width="0.746" height="2.273"/>
		</g>
	</g>
	<g>
		<path fill="#095B56" d="M50.253,117.033v-3.199c0-0.062,0.022-0.116,0.066-0.162c0.043-0.046,0.098-0.069,0.161-0.069
			c0.062,0,0.114,0.023,0.159,0.069c0.046,0.046,0.068,0.101,0.068,0.162v1.364h1.388v-1.364c0-0.062,0.021-0.116,0.065-0.162
			c0.045-0.046,0.099-0.069,0.162-0.069c0.063,0,0.116,0.023,0.161,0.069c0.044,0.046,0.065,0.103,0.065,0.167v3.194
			c0,0.063-0.023,0.118-0.068,0.163c-0.046,0.045-0.099,0.068-0.158,0.068c-0.065,0-0.12-0.021-0.164-0.066
			c-0.042-0.045-0.063-0.1-0.063-0.165v-1.372h-1.382v1.372c0,0.063-0.023,0.118-0.069,0.163s-0.101,0.068-0.164,0.068
			c-0.062,0-0.114-0.021-0.16-0.066C50.275,117.153,50.253,117.099,50.253,117.033z"/>
		<path fill="#095B56" d="M55.907,115.477v0.56c0,0.063-0.023,0.117-0.068,0.162c-0.045,0.047-0.098,0.069-0.159,0.069H54.07v0.136
			c0,0.078,0.033,0.146,0.101,0.2l0.132,0.113c0.073,0.057,0.142,0.085,0.206,0.085h1.171c0.062,0,0.114,0.023,0.159,0.068
			s0.068,0.1,0.068,0.163s-0.023,0.118-0.069,0.163s-0.099,0.068-0.158,0.068h-1.2c-0.079,0-0.164-0.017-0.251-0.051
			c-0.089-0.033-0.152-0.068-0.193-0.105l-0.203-0.182c-0.063-0.052-0.116-0.123-0.158-0.215c-0.044-0.093-0.065-0.178-0.065-0.254
			v-1.061c0-0.062,0.023-0.143,0.07-0.246c0.046-0.104,0.104-0.183,0.174-0.239l0.19-0.151c0.125-0.104,0.263-0.155,0.415-0.155
			h0.639c0.16,0,0.313,0.068,0.455,0.205l0.171,0.164C55.845,115.087,55.907,115.255,55.907,115.477z M54.076,115.44v0.358h1.381
			v-0.322c0-0.087-0.025-0.152-0.078-0.198l-0.134-0.119c-0.068-0.057-0.129-0.086-0.184-0.086H54.49
			c-0.071,0-0.135,0.025-0.192,0.075l-0.133,0.113C54.105,115.308,54.076,115.368,54.076,115.44z"/>
		<path fill="#095B56" d="M57.603,114.605h1.044c0.161,0,0.306,0.05,0.431,0.147c0.124,0.098,0.187,0.195,0.187,0.288
			c0,0.065-0.023,0.12-0.069,0.163c-0.046,0.042-0.097,0.063-0.152,0.063c-0.072,0-0.139-0.032-0.198-0.1
			c-0.06-0.064-0.122-0.098-0.187-0.098h-1.03c-0.101,0-0.151,0.043-0.151,0.127c0,0.062,0.034,0.106,0.102,0.137l1.21,0.549
			c0.122,0.055,0.224,0.144,0.302,0.266c0.079,0.123,0.118,0.258,0.118,0.406c0,0.199-0.069,0.367-0.208,0.505
			c-0.138,0.138-0.295,0.206-0.471,0.206h-0.92c-0.16,0-0.307-0.048-0.443-0.146c-0.137-0.097-0.205-0.19-0.205-0.283
			c0-0.061,0.023-0.113,0.067-0.16c0.044-0.048,0.102-0.071,0.171-0.071c0.059,0,0.121,0.033,0.187,0.099
			c0.066,0.067,0.161,0.1,0.286,0.1h0.848c0.067,0,0.123-0.025,0.168-0.077c0.045-0.054,0.067-0.113,0.067-0.182
			c0-0.104-0.05-0.181-0.151-0.226l-1.223-0.56c-0.116-0.054-0.207-0.13-0.27-0.231c-0.064-0.102-0.095-0.203-0.095-0.309
			c0-0.166,0.056-0.309,0.169-0.431C57.297,114.667,57.437,114.605,57.603,114.605z"/>
		<path fill="#095B56" d="M60.996,115.595h0.892c0.05,0,0.119,0.012,0.212,0.033l-0.005-0.328c0-0.064-0.021-0.119-0.066-0.164
			s-0.098-0.066-0.161-0.066h-0.866c-0.062,0-0.115-0.023-0.16-0.07c-0.045-0.045-0.068-0.099-0.068-0.162
			c0-0.064,0.021-0.118,0.066-0.163s0.098-0.068,0.162-0.068h0.865c0.188,0,0.349,0.067,0.48,0.201
			c0.134,0.134,0.203,0.3,0.209,0.493l0.057,1.733c0,0.065-0.023,0.12-0.068,0.165s-0.098,0.066-0.159,0.066
			c-0.065,0-0.12-0.021-0.165-0.066s-0.067-0.1-0.067-0.165l-0.386,0.231h-0.771c-0.191,0-0.354-0.067-0.488-0.203
			c-0.134-0.137-0.201-0.301-0.201-0.496v-0.271c0-0.191,0.067-0.356,0.202-0.493C60.644,115.663,60.806,115.595,60.996,115.595z
			 M62.134,116.497L62.12,116.3c-0.001-0.065-0.023-0.121-0.068-0.164c-0.042-0.045-0.096-0.066-0.159-0.066h-0.897
			c-0.064,0-0.117,0.021-0.161,0.066c-0.044,0.047-0.067,0.1-0.067,0.164v0.26c0,0.063,0.023,0.116,0.068,0.162
			c0.045,0.047,0.099,0.069,0.16,0.069h0.643L62.134,116.497z"/>
		<path fill="#095B56" d="M64.135,113.834v1.089l0.2-0.162c0.127-0.107,0.258-0.161,0.394-0.161h0.417
			c0.153,0,0.29,0.054,0.409,0.161l0.217,0.189c0.06,0.053,0.108,0.129,0.147,0.229s0.059,0.197,0.059,0.292v0.937
			c0,0.086-0.019,0.174-0.055,0.268c-0.037,0.095-0.077,0.163-0.124,0.208l-0.198,0.189c-0.051,0.05-0.123,0.094-0.217,0.134
			c-0.094,0.039-0.173,0.059-0.238,0.059h-0.391c-0.189,0-0.396-0.107-0.62-0.322v0.091c0,0.065-0.021,0.12-0.067,0.165
			c-0.043,0.045-0.097,0.066-0.16,0.066s-0.117-0.021-0.162-0.066c-0.043-0.045-0.065-0.1-0.065-0.165v-3.199
			c0-0.065,0.022-0.119,0.067-0.164c0.046-0.045,0.099-0.067,0.16-0.067c0.063,0,0.117,0.022,0.16,0.067
			C64.113,113.715,64.135,113.769,64.135,113.834z M65.11,115.069h-0.314c-0.076,0-0.134,0.017-0.174,0.052l-0.408,0.355
			c-0.053,0.048-0.079,0.12-0.079,0.215v0.523c0,0.077,0.03,0.142,0.09,0.192l0.364,0.314c0.054,0.051,0.107,0.075,0.166,0.075
			h0.372c0.052,0,0.097-0.017,0.135-0.05l0.182-0.166c0.049-0.036,0.073-0.088,0.073-0.156v-0.977c0-0.076-0.024-0.135-0.073-0.176
			l-0.165-0.141C65.228,115.09,65.172,115.069,65.11,115.069z"/>
		<path fill="#095B56" d="M67.021,117.033v-3.431h2.064c0.06,0,0.112,0.023,0.158,0.069s0.068,0.101,0.068,0.162
			c0,0.064-0.021,0.12-0.068,0.167c-0.045,0.047-0.097,0.07-0.158,0.07h-1.609v0.728h1.154c0.063,0,0.115,0.022,0.16,0.067
			s0.067,0.1,0.067,0.164s-0.022,0.119-0.067,0.164s-0.097,0.067-0.16,0.067h-1.154v1.771c0,0.065-0.022,0.12-0.066,0.165
			c-0.045,0.045-0.099,0.066-0.161,0.066c-0.063,0-0.117-0.021-0.161-0.066C67.042,117.153,67.021,117.099,67.021,117.033z"/>
		<path fill="#095B56" d="M71.454,116.797l0.766-0.497v-1.463c0-0.064,0.021-0.119,0.065-0.166c0.045-0.047,0.099-0.071,0.162-0.071
			c0.063,0,0.116,0.024,0.161,0.071c0.044,0.047,0.066,0.102,0.066,0.166v2.196c0,0.063-0.022,0.118-0.068,0.163
			c-0.045,0.045-0.098,0.068-0.159,0.068s-0.115-0.023-0.16-0.068s-0.067-0.1-0.067-0.163v-0.182l-0.396,0.263
			c-0.155,0.1-0.312,0.15-0.471,0.15h-0.211c-0.186,0-0.346-0.065-0.479-0.197c-0.134-0.133-0.205-0.295-0.214-0.486l-0.068-1.744
			c-0.003-0.061,0.019-0.114,0.064-0.161s0.1-0.07,0.164-0.07c0.061,0,0.114,0.023,0.158,0.069c0.044,0.047,0.066,0.1,0.069,0.162
			l0.063,1.712c0.005,0.165,0.098,0.248,0.278,0.248H71.454z"/>
		<path fill="#095B56" d="M74.8,115.144l-0.622,0.41v1.479c0,0.063-0.022,0.118-0.067,0.163s-0.099,0.068-0.16,0.068
			s-0.114-0.023-0.159-0.068c-0.046-0.045-0.068-0.1-0.068-0.163v-2.196c0-0.064,0.022-0.119,0.066-0.166s0.098-0.071,0.161-0.071
			c0.062,0,0.115,0.024,0.16,0.071s0.067,0.102,0.067,0.166v0.154l0.416-0.256c0.139-0.09,0.296-0.136,0.472-0.136h0.212
			c0.181,0,0.337,0.065,0.469,0.196c0.133,0.131,0.202,0.291,0.209,0.482l0.063,1.755c0.002,0.063-0.02,0.118-0.065,0.163
			c-0.045,0.045-0.099,0.068-0.162,0.068c-0.06,0-0.112-0.021-0.157-0.063c-0.045-0.041-0.069-0.098-0.07-0.169l-0.067-1.728
			c-0.006-0.161-0.089-0.242-0.25-0.242h-0.223C74.953,115.063,74.879,115.09,74.8,115.144z"/>
	</g>
</g>
<g>
	<g>
		<ellipse fill="#20A79F" cx="212.496" cy="140.824" rx="64" ry="64.245"/>
		<path fill="#095B56" d="M165.078,171.95l30.816,30.932c5.293,1.43,10.855,2.188,16.602,2.188c35.347,0,64-28.762,64-64.245
			c0-2.738-0.168-5.438-0.504-8.086l-32.035-32.16l-50.688,9.595l-5.957-6.786h-2.598l0.879,37.029L165.078,171.95z"/>
		<path fill="#E6E7E8" d="M188.43,103.704v77.094c0,2.365,1.906,4.283,4.266,4.283h48.355c2.355,0,4.266-1.918,4.266-4.283v-77.094
			c0-2.366-1.91-4.283-4.266-4.283h-48.355C190.336,99.421,188.43,101.338,188.43,103.704z M206.727,175.563h31.855v2.381h-31.855
			V175.563z M238.582,141.395v8.563h-8.531v-8.563H238.582z M230.051,139.017v-8.567h8.531v8.567H230.051z M238.582,152.816v8.565
			h-8.531v-8.565H238.582z M238.582,163.665v8.568h-8.531v-8.568H238.582z M206.156,163.665h20.672v8.568h-20.672V163.665z
			 M226.828,141.395v8.563h-8.535v-8.563H226.828z M218.293,139.017v-8.567h8.535v8.567H218.293z M226.828,152.816v8.565h-8.535
			v-8.565H226.828z M206.156,152.816h8.535v8.565h-8.535V152.816z M206.156,141.395h8.535v8.563h-8.535V141.395z M206.156,130.449
			h8.535v8.567h-8.535V130.449z M194.402,163.665h8.531v14.279h-8.531V163.665z M194.402,152.816h8.531v8.565h-8.531V152.816z
			 M194.402,141.395h8.531v8.563h-8.531V141.395z M194.402,130.449h8.531v8.567h-8.531V130.449z M192.98,115.316
			c0-2.364,1.91-4.285,4.266-4.285H236.5c2.355,0,4.266,1.921,4.266,4.285v3.046c0,2.362-1.91,4.284-4.266,4.284h-39.254
			c-2.355,0-4.266-1.922-4.266-4.284V115.316z"/>
		<g>
			<polygon fill="#D1D3D4" points="165.078,171.948 166.863,172.981 185.266,140.99 185.594,140.416 185.594,103.387 
				187.313,103.387 184.516,100.578 181.813,103.387 183.531,103.387 183.531,139.86 			"/>
			<path fill="#D1D3D4" d="M151.016,140.99"/>
			<rect x="181.738" y="151.579" fill="#D1D3D4" width="2.98" height="21.402"/>
			<rect x="177.152" y="157.102" fill="#D1D3D4" width="3.098" height="15.88"/>
			<rect x="172.566" y="164.007" fill="#D1D3D4" width="2.98" height="8.975"/>
		</g>
	</g>
	<g>
		<path fill="#095B56" d="M162.633,225.661v-12.629c0-0.244,0.09-0.461,0.266-0.641c0.176-0.182,0.391-0.273,0.645-0.273
			c0.246,0,0.461,0.092,0.641,0.273c0.18,0.18,0.27,0.396,0.27,0.641v5.385h5.551v-5.385c0-0.244,0.086-0.461,0.262-0.641
			c0.18-0.182,0.395-0.273,0.648-0.273c0.25,0,0.465,0.092,0.645,0.273c0.176,0.18,0.266,0.404,0.266,0.662v12.607
			c0,0.248-0.094,0.463-0.277,0.643s-0.395,0.273-0.633,0.273c-0.262,0-0.48-0.09-0.652-0.266c-0.172-0.178-0.258-0.395-0.258-0.65
			v-5.416h-5.527v5.416c0,0.248-0.094,0.463-0.277,0.643s-0.402,0.273-0.656,0.273c-0.246,0-0.457-0.09-0.641-0.266
			C162.723,226.134,162.633,225.917,162.633,225.661z"/>
		<path fill="#095B56" d="M185.25,219.517v2.207c0,0.246-0.09,0.465-0.27,0.645c-0.184,0.18-0.395,0.271-0.641,0.271h-6.438v0.531
			c0,0.313,0.133,0.578,0.402,0.793l0.527,0.449c0.293,0.223,0.566,0.336,0.824,0.336h4.684c0.246,0,0.457,0.09,0.641,0.266
			c0.18,0.178,0.27,0.395,0.27,0.646c0,0.248-0.094,0.463-0.277,0.643s-0.395,0.273-0.633,0.273h-4.801
			c-0.316,0-0.652-0.068-1.004-0.201c-0.352-0.135-0.609-0.275-0.773-0.42l-0.813-0.717c-0.254-0.203-0.465-0.486-0.633-0.848
			c-0.172-0.365-0.258-0.699-0.258-1.002v-4.188c0-0.24,0.094-0.563,0.277-0.969c0.184-0.41,0.418-0.723,0.699-0.947l0.758-0.598
			c0.5-0.406,1.051-0.609,1.66-0.609h2.555c0.645,0,1.25,0.268,1.82,0.807l0.684,0.65C185.004,217.976,185.25,218.64,185.25,219.517
			z M177.926,219.376v1.412h5.523v-1.271c0-0.342-0.102-0.602-0.313-0.785l-0.531-0.467c-0.273-0.223-0.52-0.338-0.738-0.338h-2.285
			c-0.281,0-0.539,0.1-0.77,0.295l-0.531,0.447C178.043,218.849,177.926,219.087,177.926,219.376z"/>
		<path fill="#095B56" d="M192.031,216.079h4.176c0.648,0,1.223,0.193,1.723,0.582c0.496,0.387,0.746,0.768,0.746,1.137
			c0,0.26-0.094,0.475-0.277,0.641c-0.184,0.168-0.387,0.252-0.609,0.252c-0.289,0-0.555-0.133-0.793-0.395
			c-0.238-0.258-0.488-0.389-0.746-0.389h-4.121c-0.402,0-0.605,0.168-0.605,0.504c0,0.24,0.137,0.42,0.406,0.541l4.84,2.162
			c0.492,0.219,0.895,0.568,1.207,1.051c0.316,0.484,0.473,1.016,0.473,1.604c0,0.785-0.277,1.449-0.828,1.992
			c-0.555,0.543-1.18,0.816-1.883,0.816h-3.684c-0.637,0-1.227-0.193-1.773-0.578c-0.543-0.385-0.816-0.756-0.816-1.119
			c0-0.24,0.09-0.451,0.266-0.637s0.406-0.279,0.688-0.279c0.23,0,0.48,0.133,0.742,0.393c0.266,0.264,0.645,0.393,1.145,0.393
			h3.391c0.27,0,0.492-0.102,0.672-0.309c0.18-0.209,0.27-0.445,0.27-0.715c0-0.412-0.199-0.711-0.605-0.891l-4.887-2.209
			c-0.469-0.211-0.832-0.514-1.082-0.914c-0.254-0.4-0.379-0.803-0.379-1.219c0-0.654,0.223-1.217,0.676-1.697
			C190.809,216.319,191.367,216.079,192.031,216.079z"/>
		<path fill="#095B56" d="M205.605,219.985h3.57c0.195,0,0.477,0.041,0.844,0.131l-0.02-1.295c0-0.258-0.086-0.471-0.266-0.648
			c-0.176-0.18-0.391-0.266-0.645-0.266h-3.465c-0.246,0-0.461-0.092-0.641-0.273c-0.18-0.18-0.273-0.393-0.273-0.641
			c0-0.254,0.09-0.469,0.266-0.646c0.18-0.178,0.395-0.268,0.648-0.268h3.461c0.754,0,1.395,0.266,1.926,0.793
			c0.531,0.529,0.809,1.18,0.832,1.949l0.227,6.84c0,0.256-0.09,0.473-0.27,0.65c-0.18,0.176-0.395,0.266-0.641,0.266
			c-0.262,0-0.48-0.09-0.66-0.266c-0.18-0.178-0.27-0.395-0.27-0.65l-1.543,0.916h-3.082c-0.766,0-1.418-0.268-1.953-0.805
			s-0.805-1.189-0.805-1.959v-1.068c0-0.76,0.27-1.41,0.809-1.951C204.195,220.255,204.844,219.985,205.605,219.985z
			 M210.156,223.542l-0.055-0.773c-0.004-0.262-0.094-0.479-0.27-0.652c-0.172-0.176-0.387-0.262-0.641-0.262h-3.59
			c-0.254,0-0.469,0.088-0.645,0.266c-0.176,0.18-0.266,0.395-0.266,0.648v1.021c0,0.248,0.09,0.461,0.27,0.643
			s0.395,0.271,0.641,0.271h2.57L210.156,223.542z"/>
		<path fill="#095B56" d="M218.16,213.032v4.297l0.801-0.641c0.508-0.42,1.031-0.635,1.574-0.635h1.668
			c0.613,0,1.16,0.215,1.637,0.635l0.867,0.75c0.238,0.209,0.434,0.512,0.59,0.904c0.156,0.389,0.234,0.775,0.234,1.15v3.699
			c0,0.336-0.074,0.686-0.219,1.057s-0.309,0.641-0.496,0.816l-0.793,0.75c-0.203,0.195-0.492,0.369-0.867,0.525
			s-0.691,0.236-0.953,0.236h-1.563c-0.758,0-1.582-0.426-2.48-1.273v0.357c0,0.256-0.086,0.473-0.266,0.65
			c-0.176,0.176-0.391,0.266-0.645,0.266s-0.469-0.09-0.645-0.266c-0.176-0.178-0.266-0.395-0.266-0.65v-12.629
			c0-0.256,0.09-0.469,0.27-0.646c0.184-0.178,0.395-0.268,0.641-0.268c0.254,0,0.469,0.09,0.645,0.268
			C218.074,212.563,218.16,212.776,218.16,213.032z M222.063,217.907h-1.258c-0.305,0-0.535,0.068-0.695,0.207l-1.633,1.402
			c-0.211,0.189-0.316,0.473-0.316,0.848v2.066c0,0.305,0.121,0.559,0.359,0.762l1.461,1.24c0.211,0.197,0.43,0.297,0.66,0.297
			h1.488c0.207,0,0.387-0.068,0.539-0.199l0.727-0.652c0.195-0.145,0.293-0.35,0.293-0.619v-3.852c0-0.305-0.098-0.537-0.293-0.697
			l-0.66-0.555C222.531,217.989,222.309,217.907,222.063,217.907z"/>
		<path fill="#095B56" d="M229.703,225.661v-13.543h8.258c0.238,0,0.449,0.092,0.633,0.273c0.184,0.18,0.277,0.396,0.277,0.641
			c0,0.254-0.09,0.473-0.273,0.66c-0.18,0.184-0.391,0.275-0.637,0.275h-6.438v2.873h4.617c0.254,0,0.465,0.088,0.645,0.264
			c0.176,0.18,0.266,0.396,0.266,0.65s-0.09,0.469-0.266,0.648c-0.18,0.174-0.391,0.266-0.645,0.266h-4.617v6.992
			c0,0.256-0.09,0.473-0.266,0.65c-0.18,0.176-0.395,0.266-0.645,0.266c-0.254,0-0.469-0.09-0.645-0.266
			C229.789,226.134,229.703,225.917,229.703,225.661z"/>
		<path fill="#095B56" d="M247.437,224.729l3.063-1.961v-5.775c0-0.254,0.086-0.475,0.262-0.66c0.18-0.184,0.395-0.279,0.648-0.279
			c0.25,0,0.465,0.096,0.645,0.279c0.176,0.186,0.266,0.406,0.266,0.66v8.668c0,0.248-0.09,0.463-0.273,0.643
			c-0.18,0.18-0.391,0.273-0.637,0.273s-0.461-0.094-0.641-0.273s-0.27-0.395-0.27-0.643v-0.717l-1.582,1.035
			c-0.621,0.396-1.246,0.598-1.883,0.598h-0.843c-0.742,0-1.383-0.26-1.914-0.783c-0.535-0.523-0.82-1.162-0.855-1.916l-0.27-6.885
			c-0.016-0.238,0.07-0.453,0.254-0.637c0.184-0.186,0.402-0.277,0.656-0.277c0.246,0,0.457,0.092,0.633,0.271
			c0.176,0.182,0.27,0.395,0.277,0.643l0.25,6.756c0.02,0.652,0.391,0.98,1.112,0.98H247.437z"/>
		<path fill="#095B56" d="M260.819,218.2l-2.488,1.621v5.84c0,0.248-0.09,0.463-0.27,0.643s-0.395,0.273-0.641,0.273
			s-0.457-0.094-0.637-0.273c-0.184-0.18-0.273-0.395-0.273-0.643v-8.668c0-0.254,0.09-0.475,0.266-0.66
			c0.176-0.184,0.391-0.279,0.645-0.279c0.246,0,0.461,0.096,0.641,0.279c0.18,0.186,0.27,0.406,0.27,0.66v0.609l1.664-1.012
			c0.555-0.357,1.184-0.537,1.887-0.537h0.848c0.722,0,1.347,0.26,1.874,0.777c0.531,0.514,0.809,1.145,0.836,1.9l0.25,6.93
			c0.008,0.248-0.078,0.463-0.262,0.643c-0.18,0.18-0.395,0.273-0.648,0.273c-0.238,0-0.449-0.084-0.629-0.248
			c-0.18-0.162-0.273-0.385-0.281-0.668l-0.27-6.818c-0.023-0.639-0.355-0.957-0.999-0.957h-0.891
			C261.433,217.886,261.136,217.989,260.819,218.2z"/>
	</g>
</g>
<g>
	<g>
		<path fill="#20A79F" d="M303.701,119.959c0,53.224,42.984,96.367,96,96.367c53.021,0,96-43.144,96-96.367
			c0-53.223-42.979-96.37-96-96.37C346.686,23.589,303.701,66.736,303.701,119.959z"/>
		<path fill="#095B56" d="M328.574,166.648l46.225,46.398c7.939,2.145,16.283,3.279,24.902,3.279c53.021,0,96-43.141,96-96.367
			c0-4.107-0.252-8.156-0.756-12.128L446.893,59.59l-76.031,14.393l-8.936-10.18h-3.896l1.318,55.545L328.574,166.648z"/>
		<path fill="#E6E7E8" d="M363.602,64.279v115.643c0,3.547,2.859,6.424,6.398,6.424h72.533c3.533,0,6.398-2.877,6.398-6.424V64.279
			c0-3.55-2.865-6.425-6.398-6.425H370C366.461,57.854,363.602,60.729,363.602,64.279z M391.047,172.069h47.783v3.571h-47.783
			V172.069z M438.83,120.815v12.845h-12.797v-12.845H438.83z M426.033,117.248v-12.852h12.797v12.852H426.033z M438.83,137.948
			v12.849h-12.797v-12.849H438.83z M438.83,154.223v12.852h-12.797v-12.852H438.83z M390.191,154.223h31.008v12.852h-31.008V154.223
			z M421.199,120.815v12.845h-12.803v-12.845H421.199z M408.396,117.248v-12.852h12.803v12.852H408.396z M421.199,137.948v12.849
			h-12.803v-12.849H421.199z M390.191,137.948h12.803v12.849h-12.803V137.948z M390.191,120.815h12.803v12.845h-12.803V120.815z
			 M390.191,104.396h12.803v12.852h-12.803V104.396z M372.561,154.223h12.797v21.418h-12.797V154.223z M372.561,137.948h12.797
			v12.849h-12.797V137.948z M372.561,120.815h12.797v12.845h-12.797V120.815z M372.561,104.396h12.797v12.852h-12.797V104.396z
			 M370.428,81.697c0-3.546,2.865-6.427,6.398-6.427h58.881c3.533,0,6.398,2.881,6.398,6.427v4.569c0,3.544-2.865,6.427-6.398,6.427
			h-58.881c-3.533,0-6.398-2.883-6.398-6.427V81.697z"/>
		<g>
			<polygon fill="#D1D3D4" points="328.574,166.646 331.252,168.195 358.855,120.209 359.348,119.348 359.348,63.803 
				361.926,63.803 357.73,59.59 353.676,63.803 356.254,63.803 356.254,118.514 			"/>
			<path fill="#D1D3D4" d="M307.48,120.209"/>
			<rect x="353.564" y="136.092" fill="#D1D3D4" width="4.471" height="32.104"/>
			<rect x="346.686" y="144.375" fill="#D1D3D4" width="4.646" height="23.82"/>
			<rect x="339.807" y="154.734" fill="#D1D3D4" width="4.471" height="13.461"/>
		</g>
	</g>
	<g>
		<path fill="#095B56" d="M324.906,247.215v-18.943c0-0.365,0.135-0.689,0.398-0.961s0.586-0.408,0.967-0.408
			c0.369,0,0.691,0.137,0.961,0.408s0.404,0.596,0.404,0.961v8.078h8.326v-8.078c0-0.365,0.129-0.689,0.393-0.961
			c0.27-0.271,0.592-0.408,0.973-0.408c0.375,0,0.697,0.137,0.967,0.408c0.264,0.271,0.398,0.607,0.398,0.994v18.91
			c0,0.373-0.141,0.695-0.416,0.963c-0.275,0.271-0.592,0.41-0.949,0.41c-0.393,0-0.721-0.133-0.979-0.398s-0.387-0.59-0.387-0.975
			v-8.123h-8.291v8.123c0,0.373-0.141,0.695-0.416,0.963c-0.275,0.271-0.604,0.41-0.984,0.41c-0.369,0-0.686-0.133-0.961-0.398
			C325.041,247.924,324.906,247.6,324.906,247.215z"/>
		<path fill="#095B56" d="M358.832,237.998v3.311c0,0.369-0.135,0.697-0.404,0.967c-0.275,0.271-0.592,0.406-0.961,0.406h-9.656
			v0.799c0,0.469,0.199,0.867,0.604,1.189l0.791,0.672c0.439,0.336,0.85,0.506,1.236,0.506h7.025c0.369,0,0.686,0.133,0.961,0.398
			c0.27,0.266,0.404,0.59,0.404,0.969c0,0.373-0.141,0.695-0.416,0.963c-0.275,0.271-0.592,0.41-0.949,0.41h-7.201
			c-0.475,0-0.979-0.102-1.506-0.301c-0.527-0.201-0.914-0.412-1.16-0.629l-1.219-1.076c-0.381-0.305-0.697-0.729-0.949-1.271
			c-0.258-0.547-0.387-1.047-0.387-1.502v-6.281c0-0.361,0.141-0.844,0.416-1.455c0.275-0.613,0.627-1.084,1.049-1.42l1.137-0.895
			c0.75-0.611,1.576-0.916,2.49-0.916h3.832c0.967,0,1.875,0.4,2.73,1.211l1.025,0.975
			C358.463,235.688,358.832,236.684,358.832,237.998z M347.846,237.787v2.119h8.285v-1.908c0-0.512-0.152-0.902-0.469-1.176
			l-0.797-0.701c-0.41-0.334-0.779-0.508-1.107-0.508h-3.428c-0.422,0-0.809,0.15-1.154,0.441l-0.797,0.672
			C348.021,236.996,347.846,237.354,347.846,237.787z"/>
		<path fill="#095B56" d="M369.004,232.842h6.264c0.973,0,1.834,0.291,2.584,0.873c0.744,0.58,1.119,1.152,1.119,1.705
			c0,0.391-0.141,0.711-0.416,0.961c-0.275,0.252-0.58,0.377-0.914,0.377c-0.434,0-0.832-0.197-1.189-0.59
			c-0.357-0.387-0.732-0.584-1.119-0.584h-6.182c-0.604,0-0.908,0.252-0.908,0.758c0,0.359,0.205,0.627,0.609,0.811l7.26,3.242
			c0.738,0.328,1.342,0.854,1.811,1.576c0.475,0.727,0.709,1.523,0.709,2.406c0,1.176-0.416,2.174-1.242,2.988
			c-0.832,0.813-1.77,1.223-2.824,1.223h-5.525c-0.955,0-1.84-0.289-2.66-0.867c-0.814-0.576-1.225-1.133-1.225-1.676
			c0-0.361,0.135-0.678,0.398-0.957c0.264-0.277,0.609-0.418,1.031-0.418c0.346,0,0.721,0.197,1.113,0.588
			c0.398,0.396,0.967,0.59,1.717,0.59h5.086c0.404,0,0.738-0.152,1.008-0.463c0.27-0.314,0.404-0.67,0.404-1.072
			c0-0.619-0.299-1.066-0.908-1.336l-7.33-3.313c-0.703-0.318-1.248-0.771-1.623-1.373c-0.381-0.6-0.568-1.203-0.568-1.828
			c0-0.98,0.334-1.824,1.014-2.547C367.17,233.203,368.008,232.842,369.004,232.842z"/>
		<path fill="#095B56" d="M389.365,238.701h5.355c0.293,0,0.715,0.063,1.266,0.195l-0.029-1.941c0-0.385-0.129-0.705-0.398-0.973
			c-0.264-0.268-0.586-0.398-0.967-0.398h-5.197c-0.369,0-0.691-0.139-0.961-0.41c-0.27-0.27-0.41-0.59-0.41-0.959
			c0-0.383,0.135-0.703,0.398-0.973c0.27-0.266,0.592-0.4,0.973-0.4h5.191c1.131,0,2.092,0.398,2.889,1.189
			c0.797,0.795,1.213,1.77,1.248,2.924l0.34,10.26c0,0.385-0.135,0.709-0.404,0.975s-0.592,0.398-0.961,0.398
			c-0.393,0-0.721-0.133-0.99-0.398s-0.404-0.59-0.404-0.975l-2.314,1.373h-4.623c-1.148,0-2.127-0.4-2.93-1.205
			c-0.803-0.807-1.207-1.783-1.207-2.939v-1.602c0-1.141,0.404-2.117,1.213-2.928C387.25,239.105,388.223,238.701,389.365,238.701z
			 M396.191,244.037l-0.082-1.16c-0.006-0.393-0.141-0.719-0.404-0.979c-0.258-0.264-0.58-0.393-0.961-0.393h-5.385
			c-0.381,0-0.703,0.133-0.967,0.398c-0.264,0.27-0.398,0.59-0.398,0.973v1.531c0,0.373,0.135,0.691,0.404,0.965
			c0.27,0.271,0.592,0.408,0.961,0.408h3.855L396.191,244.037z"/>
		<path fill="#095B56" d="M408.197,228.271v6.445l1.201-0.959c0.762-0.631,1.547-0.953,2.361-0.953h2.502
			c0.92,0,1.74,0.322,2.455,0.953l1.301,1.123c0.357,0.313,0.65,0.768,0.885,1.357c0.234,0.584,0.352,1.162,0.352,1.725v5.549
			c0,0.504-0.111,1.029-0.328,1.584c-0.217,0.559-0.463,0.963-0.744,1.227l-1.189,1.125c-0.305,0.291-0.738,0.555-1.301,0.789
			s-1.037,0.352-1.43,0.352h-2.344c-1.137,0-2.373-0.639-3.721-1.91v0.537c0,0.385-0.129,0.709-0.398,0.975
			c-0.264,0.266-0.586,0.398-0.967,0.398s-0.703-0.133-0.967-0.398s-0.398-0.59-0.398-0.975v-18.943
			c0-0.383,0.135-0.703,0.404-0.971c0.275-0.266,0.592-0.398,0.961-0.398c0.381,0,0.703,0.133,0.967,0.398
			C408.068,227.568,408.197,227.889,408.197,228.271z M414.051,235.584h-1.887c-0.457,0-0.803,0.102-1.043,0.311l-2.449,2.104
			c-0.316,0.283-0.475,0.709-0.475,1.271v3.1c0,0.457,0.182,0.838,0.539,1.143l2.191,1.861c0.316,0.295,0.645,0.443,0.99,0.443
			h2.232c0.311,0,0.58-0.102,0.809-0.299l1.09-0.977c0.293-0.217,0.439-0.525,0.439-0.93v-5.777c0-0.457-0.146-0.805-0.439-1.045
			l-0.99-0.832C414.754,235.709,414.42,235.584,414.051,235.584z"/>
		<path fill="#095B56" d="M425.512,247.215v-20.313h12.387c0.357,0,0.674,0.137,0.949,0.408s0.416,0.596,0.416,0.961
			c0,0.383-0.135,0.709-0.41,0.99c-0.27,0.275-0.586,0.414-0.955,0.414h-9.656v4.311h6.926c0.381,0,0.697,0.129,0.967,0.395
			c0.264,0.27,0.398,0.594,0.398,0.975s-0.135,0.703-0.398,0.973c-0.27,0.262-0.586,0.398-0.967,0.398h-6.926v10.488
			c0,0.385-0.135,0.709-0.398,0.975c-0.27,0.266-0.592,0.398-0.967,0.398c-0.381,0-0.703-0.133-0.967-0.398
			C425.641,247.924,425.512,247.6,425.512,247.215z"/>
		<path fill="#095B56" d="M452.113,245.816l4.594-2.939v-8.662c0-0.383,0.129-0.713,0.393-0.992c0.27-0.275,0.592-0.418,0.973-0.418
			c0.375,0,0.697,0.143,0.967,0.418c0.264,0.279,0.398,0.609,0.398,0.992v13c0,0.373-0.135,0.695-0.41,0.963
			c-0.27,0.271-0.586,0.41-0.955,0.41s-0.691-0.139-0.961-0.41c-0.27-0.268-0.404-0.59-0.404-0.963v-1.074l-2.373,1.553
			c-0.932,0.594-1.869,0.895-2.824,0.895h-1.266c-1.113,0-2.074-0.389-2.871-1.174c-0.803-0.785-1.23-1.742-1.283-2.873
			l-0.404-10.326c-0.023-0.359,0.105-0.682,0.381-0.957c0.275-0.277,0.604-0.416,0.984-0.416c0.369,0,0.686,0.139,0.949,0.406
			c0.264,0.275,0.404,0.594,0.416,0.967l0.375,10.133c0.029,0.977,0.586,1.469,1.67,1.469H452.113z"/>
		<path fill="#095B56" d="M472.188,236.023l-3.732,2.432v8.76c0,0.373-0.135,0.695-0.404,0.963c-0.27,0.271-0.592,0.41-0.961,0.41
			s-0.686-0.139-0.955-0.41c-0.275-0.268-0.41-0.59-0.41-0.963v-13c0-0.383,0.135-0.713,0.398-0.992
			c0.264-0.275,0.586-0.418,0.967-0.418c0.369,0,0.691,0.143,0.961,0.418c0.27,0.279,0.404,0.609,0.404,0.992v0.912l2.496-1.518
			c0.832-0.535,1.775-0.805,2.83-0.805h1.271c1.084,0,2.021,0.389,2.813,1.166c0.797,0.77,1.213,1.717,1.254,2.852l0.375,10.393
			c0.012,0.373-0.117,0.695-0.393,0.963c-0.27,0.271-0.592,0.41-0.973,0.41c-0.357,0-0.674-0.123-0.943-0.369
			c-0.27-0.244-0.41-0.578-0.422-1.004l-0.404-10.229c-0.035-0.957-0.533-1.434-1.5-1.434h-1.336
			C473.107,235.553,472.662,235.709,472.188,236.023z"/>
	</g>
</g>
<text transform="matrix(1 0 0 1 46.7188 65.2627)" font-family="'MyriadPro-Regular'" font-size="12">32 x 38</text>
<text transform="matrix(1 0 0 1 189.4644 64.9966)" font-family="'MyriadPro-Regular'" font-size="12">128 x 150</text>
<text transform="matrix(1 0 0 1 378.9727 18.3486)" font-family="'MyriadPro-Regular'" font-size="12">192 x 225</text>
<g>
	<path fill="#20A79F" d="M164.457,7.412h2.088v14.425h6.913v1.752h-9V7.412z"/>
	<path fill="#20A79F" d="M185.89,17.685c0,4.296-2.977,6.168-5.785,6.168c-3.144,0-5.568-2.304-5.568-5.977
		c0-3.888,2.544-6.168,5.76-6.168C183.633,11.708,185.89,14.132,185.89,17.685z M176.673,17.804c0,2.544,1.464,4.464,3.528,4.464
		c2.016,0,3.528-1.896,3.528-4.512c0-1.968-0.984-4.464-3.48-4.464S176.673,15.596,176.673,17.804z"/>
	<path fill="#20A79F" d="M198.562,11.972c-0.048,0.84-0.096,1.776-0.096,3.192v6.745c0,2.664-0.528,4.296-1.656,5.305
		c-1.128,1.056-2.76,1.392-4.224,1.392c-1.392,0-2.928-0.336-3.865-0.96l0.528-1.608c0.768,0.48,1.968,0.912,3.408,0.912
		c2.16,0,3.744-1.128,3.744-4.057v-1.296h-0.048c-0.648,1.08-1.896,1.944-3.696,1.944c-2.88,0-4.944-2.448-4.944-5.665
		c0-3.937,2.568-6.168,5.232-6.168c2.016,0,3.12,1.056,3.625,2.016h0.048l0.096-1.752H198.562z M196.377,16.556
		c0-0.36-0.024-0.672-0.12-0.96c-0.384-1.224-1.417-2.232-2.953-2.232c-2.016,0-3.456,1.705-3.456,4.393
		c0,2.28,1.152,4.176,3.432,4.176c1.296,0,2.472-0.816,2.928-2.16c0.12-0.36,0.168-0.768,0.168-1.128V16.556z"/>
	<path fill="#20A79F" d="M212.481,17.685c0,4.296-2.977,6.168-5.785,6.168c-3.144,0-5.568-2.304-5.568-5.977
		c0-3.888,2.544-6.168,5.76-6.168C210.225,11.708,212.481,14.132,212.481,17.685z M203.265,17.804c0,2.544,1.464,4.464,3.528,4.464
		c2.016,0,3.528-1.896,3.528-4.512c0-1.968-0.984-4.464-3.48-4.464S203.265,15.596,203.265,17.804z"/>
	<path fill="#20A79F" d="M217.329,9.188h-4.92V7.412h11.977v1.776h-4.944v14.401h-2.112V9.188z"/>
	<path fill="#20A79F" d="M225.92,11.972l2.544,6.865c0.264,0.768,0.552,1.68,0.744,2.376h0.048c0.216-0.696,0.456-1.584,0.744-2.424
		l2.304-6.817h2.232l-3.168,8.281c-1.512,3.984-2.544,6.025-3.984,7.273c-1.032,0.912-2.064,1.272-2.592,1.368l-0.528-1.776
		c0.528-0.168,1.224-0.504,1.848-1.032c0.576-0.456,1.296-1.272,1.776-2.352c0.096-0.216,0.168-0.384,0.168-0.504
		c0-0.12-0.048-0.288-0.144-0.552l-4.296-10.705H225.92z"/>
	<path fill="#20A79F" d="M236.456,15.764c0-1.488-0.048-2.688-0.096-3.792h1.896l0.096,1.992h0.048
		c0.864-1.416,2.232-2.256,4.128-2.256c2.809,0,4.92,2.376,4.92,5.904c0,4.176-2.543,6.241-5.279,6.241
		c-1.536,0-2.881-0.672-3.576-1.824h-0.049v6.313h-2.088V15.764z M238.544,18.86c0,0.312,0.049,0.6,0.097,0.864
		c0.384,1.464,1.655,2.472,3.168,2.472c2.232,0,3.528-1.824,3.528-4.488c0-2.328-1.225-4.32-3.456-4.32
		c-1.44,0-2.784,1.032-3.192,2.616c-0.072,0.264-0.145,0.576-0.145,0.864V18.86z"/>
	<path fill="#20A79F" d="M251.288,18.165c0.047,2.856,1.871,4.032,3.984,4.032c1.512,0,2.424-0.264,3.217-0.6l0.359,1.512
		c-0.744,0.336-2.016,0.72-3.863,0.72c-3.578,0-5.713-2.353-5.713-5.857c0-3.504,2.063-6.264,5.447-6.264
		c3.793,0,4.801,3.336,4.801,5.472c0,0.432-0.047,0.768-0.072,0.984H251.288z M257.481,16.652c0.023-1.344-0.553-3.433-2.93-3.433
		c-2.137,0-3.072,1.968-3.24,3.433H257.481z"/>
</g>
</svg>
