<svg xmlns="http://www.w3.org/2000/svg" height="150px" width="150px" viewBox="0 0 102 102">
    <g fill="none" fill-rule="evenodd">
        <path fill="#FFBF44" d="M1 1h100v100H1z"/>
        <path stroke="#5A4B41" stroke-width="2" d="M1 1h100v100H1z"/>
        <path fill="#5A4B41" d="M50 1h2v100h-2z"/>
        <path fill="#5A4B41" d="M1 50h100v2H1zM65 25h22v2H65z"/>
        <g fill="#5A4B41">
            <path d="M15 25h22v2H15z"/>
            <path d="M27 15v22h-2V15z"/>
        </g>
        <g fill="#5A4B41">
            <path d="M18.929 67.515L34.485 83.07l-1.414 1.414L17.515 68.93z"/>
            <path d="M34.485 68.929L18.93 84.485l-1.414-1.414L33.07 67.515z"/>
        </g>
        <g fill="#5A4B41">
            <path d="M65 72.5h22v2H65zM65 77.5h22v2H65z"/>
        </g>
    </g>
</svg>
