<?xml version="1.0" encoding="UTF-8"?>
<svg xmlns="http://www.w3.org/2000/svg" xmlns:xlink="http://www.w3.org/1999/xlink" width="144px" height="144px" viewBox="0 0 144 144" version="1.1">
<g id="surface1">
<path style="fill-rule:evenodd;fill:rgb(100%,74.901961%,26.666667%);fill-opacity:1;stroke-width:2;stroke-linecap:butt;stroke-linejoin:miter;stroke:rgb(35.294118%,29.411765%,25.490196%);stroke-opacity:1;stroke-miterlimit:4;" d="M 0.998861 0.998861 L 101.001139 0.998861 L 101.001139 101.001139 L 0.998861 101.001139 Z M 0.998861 0.998861 " transform="matrix(1.411765,0,0,1.411765,0,0)"/>
<path style=" stroke:none;fill-rule:evenodd;fill:rgb(35.294118%,29.411765%,25.490196%);fill-opacity:1;" d="M 70.589844 1.410156 L 73.410156 1.410156 L 73.410156 142.589844 L 70.589844 142.589844 Z M 70.589844 1.410156 "/>
<path style=" stroke:none;fill-rule:evenodd;fill:rgb(35.294118%,29.411765%,25.490196%);fill-opacity:1;" d="M 1.410156 70.589844 L 142.589844 70.589844 L 142.589844 73.410156 L 1.410156 73.410156 Z M 91.765625 35.292969 L 122.824219 35.292969 L 122.824219 38.117188 L 91.765625 38.117188 Z M 91.765625 35.292969 "/>
<path style=" stroke:none;fill-rule:evenodd;fill:rgb(35.294118%,29.411765%,25.490196%);fill-opacity:1;" d="M 21.175781 35.292969 L 52.234375 35.292969 L 52.234375 38.117188 L 21.175781 38.117188 Z M 21.175781 35.292969 "/>
<path style=" stroke:none;fill-rule:evenodd;fill:rgb(35.294118%,29.411765%,25.490196%);fill-opacity:1;" d="M 38.117188 21.175781 L 38.117188 52.234375 L 35.292969 52.234375 L 35.292969 21.175781 Z M 38.117188 21.175781 "/>
<path style=" stroke:none;fill-rule:evenodd;fill:rgb(35.294118%,29.411765%,25.490196%);fill-opacity:1;" d="M 26.722656 95.316406 L 48.683594 117.273438 L 46.6875 119.273438 L 24.726562 97.3125 Z M 26.722656 95.316406 "/>
<path style=" stroke:none;fill-rule:evenodd;fill:rgb(35.294118%,29.411765%,25.490196%);fill-opacity:1;" d="M 48.683594 97.3125 L 26.726562 119.273438 L 24.726562 117.277344 L 46.6875 95.316406 Z M 48.683594 97.3125 "/>
<path style=" stroke:none;fill-rule:evenodd;fill:rgb(35.294118%,29.411765%,25.490196%);fill-opacity:1;" d="M 91.765625 102.351562 L 122.824219 102.351562 L 122.824219 105.175781 L 91.765625 105.175781 Z M 91.765625 109.410156 L 122.824219 109.410156 L 122.824219 112.234375 L 91.765625 112.234375 Z M 91.765625 109.410156 "/>
</g>
</svg>
